<svg enable-background="new 0 0 110 110" height="512" viewBox="0 0 110 110" width="512" xmlns="http://www.w3.org/2000/svg"><ellipse cx="28.544" cy="54.256" fill="#d6683d" rx="9.098" ry="27.86" transform="matrix(.764 -.646 .646 .764 -28.284 31.256)"/><g fill="#963e25"><path d="m21.8734493 47.6852684c1.3048687-2.1460304 3.537611-4.4948616 5.9798622-6.429882.1526585-.1209526.2979946-.2361031.4564171-.349781.4961224.4469872 1.0022278.9215164 1.5011024 1.4017754-2.4339542 2.3189086-5.3908862 4.3659285-7.9373817 5.3778876z"/><path d="m40.7826271 55.3488884c.3940811.5869751.7766342 1.1594009 1.1331406 1.7288475-2.3972969 2.230648-5.2525024 4.1970673-7.7220764 5.1717682 1.3048706-2.1460304 3.5303383-4.4890976 5.9725876-6.424118.2035446-.1612702.4070854-.3225403.6163482-.4764977z"/><path d="m24.8135033 53.531414c1.5661545-2.5778542 4.2355385-5.3909264 7.1648197-7.7118263.2398777-.1900597.4797115-.3800812.7311153-.5555878.5534286.57901 1.0907936 1.1825905 1.6396904 1.800724-2.9299526 2.7828789-6.4768848 5.2500611-9.5356254 6.4666901z"/><path d="m36.8797112 50.0645142c.5125275.6468773 1.0120468 1.2922821 1.5000801 1.9231071-2.9139786 2.7583771-6.4318066 5.2025032-9.4614887 6.3961067 1.5661545-2.5778503 4.2356167-5.3909149 7.1576214-7.7060509.2616614-.2073173.5305976-.4203987.8037872-.6131629z"/></g><path d="m80.3512955 26.3388348c-.979248.9126072-.9033585 2.2515659-.7157974 3.2954292.099678.5547314.1991882 1.1095428.2988205 1.6642284.107933.6008205.2261353 1.2231216.6165466 1.6295433.3904572.4064713 1.1394196.5247688 1.7609406.0831146.2592545-.1842117.4673004-.4429016.6339722-.7093811.6093521-.9746475.6926498-2.124773.2057266-2.8420086-.5667725-.8347225-1.8377914-1.1703205-1.84832-2.3070927-.0101013-1.0927563 1.1546783-2.1736908 2.1842575-2.9829865.0805206-.0633106.1667023-.1293201.2566986-.1481152.4306259-.0901299.1041489.7953568.469017.9058495.6493683-.4976101 1.5263443-.4990845 1.8743896-.0030441.5599213-.2180729.6027679-.9692993.7259979-1.5263672.194313-.8770962 1.0033646-1.7382812 1.8785095-2.1294403 1.9949646-.8919411 3.4778824.3514709 3.9150009 1.8778229.1158142.4042969.1838989.7784309.3117294 1.1342201 1.3613586-1.1177788 3.5892029-.8268948 5.1831894.6833267l.0019836-.0019493c.0046539.0049992.0086441.0104694.013298.0154686.0050049.0048409.0103531.0088806.0153122.0136738l-.0019913.0019512c1.4804535 1.6216717 1.7300415 3.854517.5872421 5.1949463.3533173.1343479.7261734.2094002 1.1282578.3326778 1.5179977.4653072 2.7336884 1.9709473 1.8050156 3.9490967-.4073029.8677559-1.2833176 1.6607246-2.1638641 1.8387604-.5592499.112896-1.311142.1418228-1.5395432.6976204.4894638.3571167.4717941 1.233963-.0377502 1.8740082.1037216.3668518.9950562.056778.8970108.4857063-.0204544.0896378-.0880508.1745758-.1528854.2538643-.8281784 1.0144691-1.9305344 2.1589813-3.0228729 2.1287041-1.1363831-.0315742-1.4484329-1.3086395-2.272522-1.8907738-.7080536-.5000725-1.85952-.438076-2.8452835.1531181-.2695236.1617165-.5320206.3649292-.7210007.6207352-.4531326.6131821-.348671 1.3642578.050499 1.7621727.3990784.3978233 1.0191269.5275726 1.6178436.6466141.5527496.1098862 1.1056213.2196503 1.658371.3295403 1.0402527.2068977 2.377533.3075218 3.3081589-.6546135 1.080719 1.2206268.1540222 3.7939377-1.5758362 5.1832962-.7944107.63797-1.8604736 1.084053-2.5305939.718235-.3586426-.1959114-.5477905-.5951958-.9205627-.7711601-.3809967-.180233-.893631-.1018753-1.3524628-.1317253-.8994446-.0580711-1.6255951-.5676117-1.9216919-1.3480606-.0449982-.1181221-.0864487-.2492943-.1999512-.3023758-.1942673-.091011-.4806519.0863342-.712059.2468834-.8435059.5851402-1.9688492 1.1087379-2.5401688.6061974-.4733734-.4163437-.2851868-1.3345375-.6902924-1.8177071-.2991333-.3570099-.8633957-.404808-1.4076385-.3601913-1.4492569.1187859-3.0191193.7962914-4.3243103 1.8659325-.4938965.404789-.9767761.8789864-1.5379333 1.0888863-.5507584.206131-1.2802353.0187416-1.2148361-.5126534-.5325165.0555458-.7063217-.6772232-.4900284-1.2240753.220253-.5571785.7033539-1.0311432 1.117218-1.5174599 1.0936279-1.2851639 1.8000336-2.8422585 1.9456787-4.2890205.0546875-.5433273.0173492-1.1083755-.3340683-1.4140663-.4755859-.4139862-1.3971024-.2428284-1.8046112-.7238274-.4918747-.5805321.0524216-1.6960335.6531219-2.5285149.1648102-.2283936.3474274-.5114441.2600327-.7073631-.050972-.1144676-.1813583-.1583405-.2986679-.2055664-.7747879-.3104477-1.2707977-1.0459061-1.3122482-1.9463196-.0213089-.4592552.0664825-.9704018-.1066208-1.35462-.169075-.3760185-.564743-.5724812-.7540283-.9347363-.353302-.6767254.1124496-1.7343464.7650146-2.5168095 1.4211503-1.7038421 4.0111314-2.5827827 5.2115861-1.4795989z" fill="#4abba4"/><g fill="#41a38e"><path d="m89.4607391 44.1878967c-.508606-.4388428-.9953537-.9007378-1.4177094-1.4181213-.2106552-.2582893-.4205475-.5168419-.6092987-.790947-.2006302-.2589264-.3224716-.5699768-.6835022-.9043961-.3710556-.3006935-.7610703-.3939285-1.1327896-.4731827-.3794556-.0708389-.7650986-.0885201-1.1391754-.0500107-.7483673.0815201-1.4504776.3167-2.0900345.6411552-.2226105.1105843-.4292374.237606-.6383133.3618698.1025696-.3692169.1126556-.7727776.0591812-1.1580772-.0811691-.5253334-.252388-1.0299416-.4608917-1.5021629-.4181671-.9414558-.8848419-1.8219299-1.3558121-2.7192001-.4846497-.8848343-.9799042-1.7662163-1.51371-2.6227188-.5078278-.8488235-1.0521011-1.685461-1.0073471-2.7221565-.2031021.47686-.1890106 1.0378971-.0801392 1.5520401.1160355.5171051.3154678 1.0053215.5313187 1.4674492.4228973.9211082.8862076 1.8162041 1.359108 2.7084579.4813538.8826065.9904175 1.7697296 1.5053558 2.6182518.4344559.7621155.8493958 1.5525055.8345032 2.4508934-.9521179.5812225-1.8032379 1.2606392-2.7780838 1.7795067 1.3534241-.367485 2.5654602-1.1457596 3.8009338-1.640583.6220016-.2362633 1.258812-.426281 1.8929062-.454071.3154602-.0137749.6272964-.0013733.9265518.0628204.2987289.0640144.5994949.1652718.7635193.3152504.1621552.1273804.3464584.4577446.5636826.7473106.211174.2906761.4363174.570858.6767349.8369446.4883804.5247231 1.0208969 1.0086403 1.6084061 1.4134483 1.1609879.826725 2.5070877 1.3784142 3.8850021 1.5873032-1.29467-.5136604-2.4676894-1.2279816-3.5003967-2.0870743z"/><path d="m87.0583191 33.0080681c-.4026489-.7049904-.8246994-1.3483582-1.1008148-2.0440865-.2682953-.6977024-.4323578-1.4512329-.2110977-2.2427559-.541954.6443367-.589119 1.6161671-.3920593 2.4270096.1881027.8418369.6252365 1.5682411.9995651 2.2549477.3960953.6844749.7367401 1.342453.9134521 2.0720711.1523361.6258774.1960449 1.2865486.1497269 1.9711227-.7172546.3390045-1.3900681.7456322-2.0199203 1.2222557 1.6389771-.4381065 3.1758881-1.0745506 4.7457428-1.1840553.3896713-.034523.778923-.028286 1.1651688.0103111.387413.0297813.8177567.1348495 1.2924805.0994225.4877319-.0156631.9369965-.2465134 1.2804337-.490097.3516998-.2527008.6555481-.5182648 1.0209274-.7386665-.8558807.1270866-1.6014862.7054253-2.3016968.5982132-.3626633-.0366669-.748497-.1410751-1.1859436-.2266121-.4413452-.069767-.8895721-.0832977-1.3318481-.0578766-.8764267.0745392-1.7141724.3221855-2.4841003.6743202.2527924-.612381.3526382-1.299408.2891235-1.9793625-.064461-.860386-.439728-1.6657639-.8291399-2.3661614z"/><path d="m91.4546127 28.0627213c.2719116.506897.505806 1.018734.6603317 1.5461636.0929413.3367863.1424179.6871223.1272278 1.0507717-.0838242.0020638-.1738663.0098171-.269455.0335922-.1668549.0415401-.3003235.1089859-.4091568.1728992-.4139099.2473278-.8143082.5051613-1.181427.8110447-.7410126.5970726-1.3863297 1.3115349-1.8594894 2.1240654.7270966-.5940819 1.4546127-1.1399002 2.2229004-1.6116829.3869171-.228899.7745514-.4585896 1.1750488-.6491051.2137299-.0951195.2414017-.1094856.4613037-.0909271.2188034.0315189.5759811.0127411.8071823-.050848.471077-.1332092.916626-.2544193 1.3845444-.4848728.4482346-.2284756.9187775-.6074829 1.1181946-1.131216.1976318-.5085697.2162094-.9977398.1907959-1.4655132-.0252075-.4735947-.0487595-.9429436-.1092072-1.4046078-.1191788.4611206-.2016449.9146442-.2855453 1.363924-.0619431.4519024-.1812897.8983765-.364975 1.2344742-.3702698.6573524-1.263237.877615-2.1218643 1.1024399-.1699066.0416069-.2878571.0534039-.4410858.0502205.1480865-.361578.208847-.7689342.1746674-1.157896-.0460663-.6565437-.2855759-1.2625561-.5637817-1.8162556-.5883331-1.1030331-1.3134155-1.9408398-1.7067642-3.1082458-.1403503.6130753-.0057678 1.2726173.21064 1.8512955.2113188.5875547.5189742 1.1179903.7799147 1.6302794z"/></g><path d="m80.0276566 58.9415131c-1.2163544 1.2163506-4.4680252 3.9252739-8.630722 7.1187668-.1744461.135643-.3440704.2665253-.5282516.4022598-1.7833252 1.3665771-3.7314224 2.8106689-5.747345 4.2644424-.1356735.0969238-.271347.1938477-.4118958.2955933-4.7102966 3.3727951-9.7791901 6.7455902-14.1502876 9.1782913-.3101234.1647797-.6154213.3343735-.9158707.4991226-4.8169823 2.5781326-8.6598244 3.8719711-10.0069923 2.5248032-2.7864494-2.7864456 5.7134171-16.2001572 13.5348625-26.9195023.1501923-.1987.2955666-.4022255.4457932-.6008987 4.4970703-6.1253166 8.6937752-11.2621193 10.3026199-12.8709641 4.4486504-4.4486504 11.6546135-4.4437675 16.1032372.0048523s4.4534987 11.654583.0048522 16.1032334z" fill="#fd6122"/><path d="m78.7994385 57.7132988c-1.2163544 1.2163467-4.4266434 3.9666557-8.5154343 7.2340508-.1714935.1386032-.3381653.272438-.5186462.4118652-1.7515488 1.3983459-3.6612167 2.8808746-5.6342773 4.3775101-.1327209.0998764-.2654381.1997604-.4030304.3044662-4.6083107 3.4747772-9.5478821 6.9768906-13.7711792 9.5573959-.2990379.1758575-.5939903.3558044-.8840942.530899-4.6462708 2.7488403-8.294754 4.2370377-9.4364853 3.0953064-2.3615227-2.3615265 6.5130157-15.4005661 14.5554199-25.8989449.1538925-.1950035.3037033-.3940926.4576187-.5890694 4.6212234-6.0011673 8.8896103-11.066288 10.4984589-12.6751328 4.4486465-4.4486504 11.1047974-4.9935875 14.8750153-1.2233658 3.7702178 3.7702181 3.2252806 10.4263689-1.2233659 14.8750193z" fill="#fb7833"/><path d="m54.9098206 31.761898c-5.0629005-1.1751232-7.2980423 15.0348358-26.1925144 24.6903572-3.9584064 2.0441208-6.389864 6.5474663-4.6906433 11.1414795 1.6668262 4.5702286 8.7168789 7.1453781 14.6588268 4.1532974 16.6331596-8.989151 21.386219-20.8572273 22.1962662-28.5258331.5391387-8.120758-3.7325288-10.7493324-5.9719353-11.459301z" fill="#467082"/><path d="m59.1977348 50.2372551c-2.5706635 6.8684311-8.3830147 14.9539909-20.5104179 21.5102959-5.9452095 2.9907074-12.9958344.4148331-14.6627331-4.1535339-1.1334019-3.071579-.4246616-6.1007576 1.3522663-8.385479-.2580147 1.4274139-.1496639 2.9486694.4170399 4.4845161 1.668066 4.5724411 8.7134686 7.145401 14.6586552 4.1547012 9.8927307-5.348938 15.5874328-11.716465 18.7451896-17.6105003z" fill="#406572"/><path d="m61.1369286 26.0102482c-.1307144-.1909943-.3664856-.2864075-.5918922-.2338448-4.6391182 1.0815678-5.3833427 3.7630253-5.3808327 5.3834229-1.1126099.1887131-2.1282883.762167-2.8936234 1.2066021-1.5324249.8898048-3.4469452 2.760704-5.2363091 6.6485596 0 0 2.3356285.7618103 6.4476013-2.3017349 0 0-.5182228 2.3889732.7878647 4.7368431 0 0 1.8948059-1.2001572 2.8563881-4.5372391 0 0 1.7872696 4.2148743 4.1621017 5.57687 0 0 .8486404-5.3026199-1.6829185-9.0648613-.3993034-.5934372-.8116226-1.0506248-1.229763-1.3968811-.1806107-3.1955776 1.6394539-4.6673145 2.5846214-5.2113628.2830735-.1629182.3612137-.536749.1767617-.8063737z" fill="#4abba4"/><path d="m89.1526489 54.2556152h-4c0-20.7910156-15.7373047-37.7060547-35.0800743-37.7060547s-35.08008 16.9150391-35.08008 37.7060547h-4c0-22.9970703 17.53125-41.7060547 39.0800781-41.7060547s39.0800762 18.7089844 39.0800762 41.7060547z" fill="#d6b24e"/><path d="m12.6520405 57.5168457 7.4121094 34.5957031c.6669922 3.112793 3.4178467 5.3369141 6.6013184 5.3369141h47.0405273c3.1835938 0 5.9343262-2.2241211 6.6013184-5.3369141l7.4121094-34.5957031z" fill="#fed35b"/><path d="m86.9452515 61.1003418-5.5799561 5.5800781-5.2800293-5.2797852 3.8800049-3.880127h-3.0200195l-2.3699951 2.369873-2.3699951-2.369873h-3.0200195l3.880127 3.880127-5.2900391 5.2797852-5.2800255-5.2797852 3.8699913-3.880127h-3.010006l-2.3699951 2.369873-2.3699951-2.369873h-3.0100098l3.8699951 3.880127-5.2800293 5.2797852-5.2900391-5.2797852 3.880127-3.880127h-3.0200195l-2.3701172 2.369873-2.369873-2.369873h-3.0100098l3.869873 3.880127-5.2799072 5.2797852-5.289917-5.2797852 3.8798828-3.880127h-3.0200195l-2.369873 2.369873-2.3701191-2.369873h-3.0100098l3.8701191 3.880127-5.2800312 5.2797852-5.2900391-5.2797852 3.8800049-3.880127h-3.0200196l-8.1800537 8.1799316.5300293 2.4799805 5.2800293-5.2797852 5.2900391 5.2897949-5.2900391 5.2900391-5.2700195-5.2700195.8200684 3.8400879 2.9399414 2.9399414-1.8999023 1.8999023.5299072 2.4799805 2.8800049-2.8798828 5.2900391 5.2900391-5.2900391 5.2900391-1.5600586-1.5600586 1.0800781 5.0500488.4799805-.4799805 5.2900391 5.2897949-1.5200195 1.5200195c.7600098.3300781 1.5999756.5300293 2.4699707.5500488l.5600586-.5598145.5699463.5698242h3.0100098l-2.0799561-2.0800781 5.290041-5.2897949 5.289917 5.2897949-2.0799561 2.0800781h3.0200195l.5699463-.5698242.5699463.5698242h3.0100098l-2.0799561-2.0800781 5.289917-5.2897949 5.2900391 5.2897949-2.0799561 2.0800781h3.0200195l.5699463-.5698242.5700684.5698242h3.0100098l-2.0800781-2.0800781 5.2900391-5.2897949 5.2900352 5.2897949-2.0800781 2.0800781h3.0100098l.5700684-.5698242.5699463.5698242h3.0200195l-2.0799561-2.0800781 5.289917-5.2897949 4.5899658 4.5898438c.4400635-.5998535.7800293-1.2697754 1-2.0100098l-4.0799561-4.079834 5.2800293-5.2900391.6800537.6799316 1.1999512-5.5698242-1.8800049 1.869873-5.2800293-5.2800293 5.2800293-5.2900391 3.0799561 3.0800781.5300293-2.4899902-2.0999756-2.1000977 3.25-3.25zm-13.8798828 13.8901367-5.2900391 5.2800293-5.2800255-5.2800293 5.2800255-5.2900391zm-12.0800744-12.0898437 5.2900352 5.2897949-5.2900352 5.2900391-5.2900391-5.2900391zm-1.5100097 12.0898437-5.2800293 5.2800293-5.2900391-5.2800293 5.2900391-5.2900391zm-12.0800781-12.0898437 5.2900391 5.2897949-5.2900391 5.2900391-5.289917-5.2900391zm-1.5100098 12.0898437-5.2799072 5.2800293-5.289917-5.2800293 5.289917-5.2900391zm-12.079834-12.0898437 5.289917 5.2897949-5.289917 5.2900391-5.290041-5.2900391zm-12.08008 12.0898437 5.2900391-5.2900391 5.2800312 5.2900391-5.2800312 5.2800293zm5.290039 18.8701172-5.2900391-5.2800293 5.2900391-5.2900391 5.2800312 5.2900391zm1.5-12.0800781 5.290041-5.2900391 5.289917 5.2900391-5.289917 5.2900391zm12.0899678 12.0800781-5.289917-5.2800293 5.289917-5.2900391 5.2799072 5.2900391zm1.5-12.0800781 5.289917-5.2900391 5.2900391 5.2900391-5.2900391 5.2900391zm12.0899658 12.0800781-5.2900391-5.2800293 5.2900391-5.2900391 5.2800293 5.2900391zm1.5-12.0800781 5.2900391-5.2900391 5.2900352 5.2900391-5.2900352 5.2900391zm12.0800743 12.0800781-5.2800255-5.2800293 5.2800255-5.2900391 5.2900391 5.2900391zm12.0899658-12.0800781-5.2900391 5.2900391-5.289917-5.2900391 5.289917-5.2900391zm-5.2900391-8.3000488-5.289917-5.2900391 5.289917-5.2897949 5.2900391 5.2897949z" fill="#d6b24e"/><path d="m90.0216675 53.1994629h-79.8981915c-1.1586914 0-2.0981445.9394531-2.0981445 2.0981445v4.4379883c0 1.1589355.9394531 2.0983887 2.0981445 2.0983887h79.8981934c1.1588135 0 2.0981445-.9394531 2.0981445-2.0983887v-4.4379883c-.0000019-1.1586914-.9393329-2.0981445-2.0981464-2.0981445z" fill="#feda6f"/></svg>